PathFileType	4	(X/Y/Z)	D:\TRACE\spotREDO_2-26-24\spot_Both_Motion_3_10-platform.trc
DataRate	CameraRate	NumFrames	NumMarkers	Units	OrigDataRate	OrigDataStartFrame	OrigNumFrames
100.00	100.00	      42	5	mm	100.00	1	      7000
Frame#	Time	Left_Front			Right_Front			Left_Aft			Right_Aft			Post			
		X1	Y1	Z1	X2	Y2	Z2	X3	Y3	Z3	X4	Y4	Z4	X5	Y5	Z5	

1	0.000	-736.27075	99.60805	-539.16992	678.46814	94.15472	-455.03738	-807.00226	-108.38725	661.86609	762.67889	-101.98711	666.14319	-43.15447	789.22705	-828.02380	
2	0.010	-736.21130	99.57487	-539.15350	678.45496	94.14246	-455.08734	-806.99860	-108.40629	661.89374	762.64410	-102.01982	666.10944	-43.15495	789.25018	-828.04645	
3	0.020	-736.24200	99.62327	-539.16113	678.45178	94.15492	-455.08826	-806.99445	-108.41097	661.90350	762.64801	-101.98112	666.13110	-43.14496	789.25427	-828.07867	
4	0.030	-736.32391	99.65496	-539.22107	678.47247	94.16486	-455.05154	-807.00598	-108.36130	661.89264	762.57275	-101.94173	666.05292	-43.13191	789.24915	-828.03503	
5	0.040	-736.33099	99.69891	-539.18719	678.41846	94.16525	-455.10480	-807.02454	-108.35233	661.84619	762.56671	-101.84694	666.16174	-43.16379	789.23615	-828.01831	
6	0.050	-736.30438	99.59267	-539.17169	678.42883	94.19461	-455.07462	-807.01367	-108.35264	661.83612	762.57379	-101.91501	666.10596	-43.18283	789.21423	-827.95013	
7	0.060	-736.26807	99.60187	-539.18127	678.37354	94.19550	-455.12546	-807.04889	-108.27287	661.83728	762.58856	-101.96422	666.06555	-43.17519	789.21167	-827.93469	
8	0.070	-736.28021	99.61685	-539.18219	678.46869	94.17267	-455.04980	-807.07965	-108.30669	661.74103	762.60510	-101.88259	666.07977	-43.12916	789.19269	-827.95605	
9	0.080	-736.30249	99.58959	-539.20581	678.45715	94.17760	-455.00421	-807.01685	-108.41818	661.68976	762.57648	-101.83139	666.03827	-43.18353	789.19629	-827.91992	
10	0.090	-736.31982	99.68002	-539.18378	678.50494	94.15720	-454.99738	-806.92297	-108.36102	661.93384	762.63361	-101.88664	666.03583	-43.18902	789.26093	-827.97388	
11	0.100	-736.36584	99.75723	-539.17987	678.44806	94.19821	-455.01059	-806.82526	-108.79203	661.91949	762.63055	-101.88734	666.04883	-43.13474	789.25140	-827.93555	
12	0.110	-736.30029	99.66226	-539.15039	678.45410	94.17873	-455.07999	-806.83508	-108.99023	661.84955	762.56750	-102.02996	666.14020	-43.12271	789.27728	-828.00824	
13	0.120	-736.27112	99.65607	-539.15277	678.45776	94.18301	-455.03519	-807.08350	-108.10469	661.81506	762.60541	-101.97685	666.13068	-43.14556	789.25812	-827.98102	
14	0.130	-736.35284	99.68747	-539.17712	678.42365	94.17405	-455.11856	-807.11530	-108.08216	661.82867	762.55432	-101.93114	666.03442	-43.12869	789.22662	-827.87573	
15	0.140	-736.27875	99.64856	-539.17676	678.43683	94.19741	-455.04556	-807.07684	-108.09431	661.82245	762.54932	-101.82979	666.01239	-43.15846	789.20740	-827.88104	
16	0.150	-736.26941	99.59502	-539.18878	678.46942	94.15253	-455.05643	-807.05487	-108.05327	661.86322	762.60126	-101.94960	666.11090	-43.15871	789.14038	-827.80786	
17	0.160	-736.26880	99.55664	-539.17670	678.46100	94.13026	-455.05185	-807.07281	-108.13206	661.89423	762.60236	-101.94643	666.14838	-43.16036	789.15869	-827.82916	
18	0.170	-736.26025	99.57738	-539.18628	678.44043	94.13975	-455.09888	-807.07184	-108.08151	661.85437	762.65851	-101.93510	666.11786	-43.15537	789.17108	-827.91046	
19	0.180	-736.26740	99.59849	-539.16333	678.43597	94.18584	-455.04843	-807.11206	-108.10165	661.81622	762.62067	-101.93982	666.10266	-43.18929	789.23993	-827.98932	
20	0.190	-736.24915	99.61453	-539.18933	678.47089	94.15054	-455.04660	-807.11493	-108.09727	661.80432	762.56415	-101.94515	666.09332	-43.14274	789.28967	-828.10651	
21	0.200	-736.21820	99.60359	-539.17218	678.46271	94.20184	-455.01141	-807.09741	-108.11185	661.79156	762.57806	-102.00288	666.08795	-43.16133	789.26929	-828.10516	
22	0.210	-736.22510	99.58965	-539.17035	678.44147	94.18676	-455.05795	-807.04840	-108.10913	661.80701	762.59027	-101.95547	666.08240	-43.13192	789.31433	-828.13409	
23	0.220	-736.26343	99.64005	-539.17780	678.41992	94.18645	-455.08548	-807.14539	-108.04240	661.85107	762.62744	-101.90324	666.06769	-43.14315	789.29962	-828.06036	
24	0.230	-736.30579	99.64165	-539.16315	678.44373	94.18127	-455.04889	-807.08484	-108.04348	661.85089	762.61700	-101.92986	666.11792	-43.19046	789.22443	-827.96686	
25	0.240	-736.25977	99.62009	-539.17529	678.43146	94.22362	-455.03137	-807.09711	-108.03548	661.79700	762.57635	-101.88277	666.07440	-43.17500	789.20502	-827.89337	
26	0.250	-736.28577	99.60551	-539.16418	678.43384	94.16096	-455.07184	-807.10754	-108.00043	661.78833	762.56622	-101.96340	666.09668	-43.13166	789.14984	-827.76086	
27	0.260	-736.29547	99.61056	-539.18707	678.43378	94.15552	-455.08954	-807.11865	-108.02219	661.78491	762.59845	-101.84370	666.03241	-43.20661	789.11688	-827.74774	
28	0.270	-736.30725	99.68877	-539.19385	678.42084	94.18375	-455.06442	-807.08203	-108.01031	661.83331	762.53308	-101.87698	666.03015	-43.18607	789.09576	-827.75061	
29	0.280	-736.29590	99.62000	-539.16888	678.44928	94.20167	-455.03430	-807.11725	-108.03988	661.82001	762.61060	-101.95658	666.05646	-43.16230	789.15985	-827.82166	
30	0.290	-736.28802	99.64911	-539.17749	678.43054	94.17377	-455.09827	-807.10931	-108.01404	661.81079	762.56488	-101.91930	666.10547	-43.14262	789.19458	-827.92908	
31	0.300	-736.23029	99.58363	-539.16443	678.48657	94.20532	-454.96399	-807.09540	-108.09725	661.79767	762.63348	-101.98752	666.07355	-43.14895	789.26392	-828.03754	
32	0.310	-736.26715	99.60206	-539.13452	678.45459	94.14575	-455.06131	-807.11389	-108.10018	661.81158	762.62555	-102.01965	666.13373	-43.15006	789.32275	-828.13367	
33	0.320	-736.24554	99.58164	-539.16687	678.42273	94.14802	-455.05356	-807.09381	-108.10014	661.78357	762.57635	-101.99941	666.10608	-43.12433	789.30121	-828.14722	
34	0.330	-736.23492	99.61098	-539.14923	678.43164	94.22469	-455.03748	-807.11560	-108.05903	661.85718	762.57587	-101.99890	666.17828	-41.74844	788.85504	-828.49200	
35	0.340	-736.22894	99.60251	-539.15161	678.40607	94.24487	-455.04681	-807.08337	-108.01434	661.85065	762.62402	-101.99336	666.19647	-41.73026	788.87939	-828.41504	
36	0.350	-736.23297	99.59026	-539.16956	678.42822	94.11689	-455.15799	-806.85278	-108.61349	661.90948	762.55499	-102.00089	666.16925	-41.67591	788.83240	-828.30951	
37	0.360	-736.32092	99.62382	-539.16400	678.44946	94.17004	-455.07712	-807.00116	-108.42801	661.88129	762.59576	-101.95825	666.07288	-41.70082	788.79248	-828.21631	
38	0.370	-736.22083	99.53126	-539.16528	678.43787	94.12615	-455.11038	-806.98120	-108.46775	661.68964	762.64301	-101.95054	666.10803	-41.78937	788.86401	-828.12585	
39	0.380	-736.30542	99.62995	-539.16534	678.41357	94.20403	-455.07837	-807.03925	-108.16589	661.81854	762.62079	-101.92792	666.05450	-41.84689	788.89398	-828.14282	
40	0.390	-736.26398	99.67644	-539.20227	678.41608	94.19036	-455.08179	-807.06628	-108.17494	661.82495	762.57703	-101.88428	666.16943	-41.86826	788.89801	-828.16833	
41	0.400	-736.27655	99.61900	-539.18616	678.43286	94.18246	-455.08737	-807.01251	-108.28602	661.84125	762.61646	-101.91598	666.09198	-41.82245	788.92316	-828.22382	
42	0.410	-736.33765	99.75636	-539.20026	678.46570	94.16886	-455.05844	-807.02094	-108.38013	661.85571	762.57324	-102.03036	666.11945	-41.79909	788.97803	-828.32062	
